<svg width="24" height="24" viewBox="0 0 24 24" fill="none" xmlns="http://www.w3.org/2000/svg">
  <circle cx="12" cy="12" r="10" fill="#2775CA"/>
  <path d="M12 4C7.58172 4 4 7.58172 4 12C4 16.4183 7.58172 20 12 20C16.4183 20 20 16.4183 20 12C20 7.58172 16.4183 4 12 4Z" fill="white"/>
  <path d="M12 5C8.13401 5 5 8.13401 5 12C5 15.866 8.13401 19 12 19C15.866 19 19 15.866 19 12C19 8.13401 15.866 5 12 5Z" fill="#2775CA"/>
  <path d="M11.25 8.5C11.25 8.22386 11.4739 8 11.75 8H12.25C12.5261 8 12.75 8.22386 12.75 8.5V9.25H13.75C14.1642 9.25 14.5 9.58579 14.5 10V10.5C14.5 10.9142 14.1642 11.25 13.75 11.25H13V12.75H13.75C14.1642 12.75 14.5 13.0858 14.5 13.5V14C14.5 14.4142 14.1642 14.75 13.75 14.75H12.75V15.5C12.75 15.7761 12.5261 16 12.25 16H11.75C11.4739 16 11.25 15.7761 11.25 15.5V14.75H10.25C9.83579 14.75 9.5 14.4142 9.5 14V13.5C9.5 13.0858 9.83579 12.75 10.25 12.75H11V11.25H10.25C9.83579 11.25 9.5 10.9142 9.5 10.5V10C9.5 9.58579 9.83579 9.25 10.25 9.25H11.25V8.5Z" fill="white"/>
  <path d="M8.5 10.5C8.5 9.67157 9.17157 9 10 9H14C14.8284 9 15.5 9.67157 15.5 10.5V13.5C15.5 14.3284 14.8284 15 14 15H10C9.17157 15 8.5 14.3284 8.5 13.5V10.5Z" stroke="white" stroke-width="0.5" fill="none"/>
</svg>